<svg width="25" height="24" viewBox="0 0 25 24" fill="none" xmlns="http://www.w3.org/2000/svg">
<path d="M12.5 22C11.1333 22 9.84167 21.7373 8.625 21.212C7.40833 20.6867 6.346 19.97 5.438 19.062C4.53 18.154 3.81333 17.0917 3.288 15.875C2.76267 14.6583 2.5 13.3667 2.5 12C2.5 10.6167 2.76267 9.321 3.288 8.113C3.81333 6.905 4.53 5.84667 5.438 4.938C6.346 4.02933 7.40833 3.31267 8.625 2.788C9.84167 2.26333 11.1333 2.00067 12.5 2C13.8833 2 15.1793 2.26267 16.388 2.788C17.5967 3.31333 18.6547 4.03 19.562 4.938C20.4693 5.846 21.186 6.90433 21.712 8.113C22.238 9.32167 22.5007 10.6173 22.5 12C22.5 13.3667 22.2373 14.6583 21.712 15.875C21.1867 17.0917 20.47 18.1543 19.562 19.063C18.654 19.9717 17.5957 20.6883 16.387 21.213C15.1783 21.7377 13.8827 22 12.5 22ZM12.5 19.95C12.9333 19.35 13.3083 18.725 13.625 18.075C13.9417 17.425 14.2 16.7333 14.4 16H10.6C10.8 16.7333 11.0583 17.425 11.375 18.075C11.6917 18.725 12.0667 19.35 12.5 19.95ZM9.9 19.55C9.6 19 9.33767 18.429 9.113 17.837C8.88833 17.245 8.70067 16.6327 8.55 16H5.6C6.08333 16.8333 6.68767 17.5583 7.413 18.175C8.13833 18.7917 8.96733 19.25 9.9 19.55ZM15.1 19.55C16.0333 19.25 16.8627 18.7917 17.588 18.175C18.3133 17.5583 18.9173 16.8333 19.4 16H16.45C16.3 16.6333 16.1127 17.246 15.888 17.838C15.6633 18.43 15.4007 19.0007 15.1 19.55ZM4.75 14H8.15C8.1 13.6667 8.06267 13.3377 8.038 13.013C8.01333 12.6883 8.00067 12.3507 8 12C7.99933 11.6493 8.012 11.312 8.038 10.988C8.064 10.664 8.10133 10.3347 8.15 10H4.75C4.66667 10.3333 4.60433 10.6627 4.563 10.988C4.52167 11.3133 4.50067 11.6507 4.5 12C4.49933 12.3493 4.52033 12.687 4.563 13.013C4.60567 13.339 4.668 13.668 4.75 14ZM10.15 14H14.85C14.9 13.6667 14.9377 13.3377 14.963 13.013C14.9883 12.6883 15.0007 12.3507 15 12C14.9993 11.6493 14.9867 11.312 14.962 10.988C14.9373 10.664 14.9 10.3347 14.85 10H10.15C10.1 10.3333 10.0627 10.6627 10.038 10.988C10.0133 11.3133 10.0007 11.6507 10 12C9.99934 12.3493 10.012 12.687 10.038 13.013C10.064 13.339 10.1013 13.668 10.15 14ZM16.85 14H20.25C20.3333 13.6667 20.396 13.3377 20.438 13.013C20.48 12.6883 20.5007 12.3507 20.5 12C20.4993 11.6493 20.4787 11.312 20.438 10.988C20.3973 10.664 20.3347 10.3347 20.25 10H16.85C16.9 10.3333 16.9377 10.6627 16.963 10.988C16.9883 11.3133 17.0007 11.6507 17 12C16.9993 12.3493 16.9867 12.687 16.962 13.013C16.9373 13.339 16.9 13.668 16.85 14ZM16.45 8H19.4C18.9167 7.16667 18.3127 6.44167 17.588 5.825C16.8633 5.20833 16.034 4.75 15.1 4.45C15.4 5 15.6627 5.571 15.888 6.163C16.1133 6.755 16.3007 7.36733 16.45 8ZM10.6 8H14.4C14.2 7.26667 13.9417 6.575 13.625 5.925C13.3083 5.275 12.9333 4.65 12.5 4.05C12.0667 4.65 11.6917 5.275 11.375 5.925C11.0583 6.575 10.8 7.26667 10.6 8ZM5.6 8H8.55C8.7 7.36667 8.88767 6.754 9.113 6.162C9.33833 5.57 9.60067 4.99933 9.9 4.45C8.96667 4.75 8.13733 5.20833 7.412 5.825C6.68667 6.44167 6.08267 7.16667 5.6 8Z" fill="white"/>
</svg>
